<?xml version="1.0" standalone="no"?>
<!DOCTYPE svg PUBLIC "-//W3C//DTD SVG 20010904//EN"
 "http://www.w3.org/TR/2001/REC-SVG-20010904/DTD/svg10.dtd">
<svg version="1.0" xmlns="http://www.w3.org/2000/svg"
 width="599.000000pt" height="599.000000pt" viewBox="0 0 599.000000 599.000000"
 preserveAspectRatio="xMidYMid meet">
<metadata>
Created by potrace 1.14, written by Peter Selinger 2001-2017
</metadata>
<g transform="translate(0.000000,599.000000) scale(0.100000,-0.100000)"
fill="#000000" stroke="none">
<path d="M0 2995 l0 -2995 2995 0 2995 0 0 2995 0 2995 -2995 0 -2995 0 0
-2995z m3114 2713 c109 -78 107 -77 209 -139 67 -40 280 -149 291 -149 4 0 25
-9 49 -19 68 -31 206 -79 292 -102 321 -85 622 -107 966 -73 91 10 173 15 182
11 11 -4 17 -26 21 -79 22 -284 28 -445 27 -852 0 -450 -9 -644 -51 -1131 -15
-172 -51 -365 -103 -555 -8 -30 -19 -66 -25 -80 -5 -14 -17 -50 -27 -80 -9
-30 -21 -64 -25 -75 -5 -11 -18 -42 -30 -70 -12 -27 -26 -61 -32 -75 -6 -14
-14 -32 -19 -40 -5 -8 -14 -26 -20 -40 -37 -87 -194 -361 -211 -368 -4 -2 -8
-8 -8 -13 0 -6 -5 -15 -10 -22 -6 -7 -38 -50 -72 -97 -34 -47 -65 -87 -69 -90
-3 -3 -28 -32 -54 -65 -27 -33 -60 -73 -74 -89 -54 -61 -410 -414 -495 -491
-49 -44 -94 -85 -100 -90 -10 -10 -204 -174 -251 -214 -11 -9 -49 -39 -85 -66
-36 -28 -67 -53 -70 -56 -7 -9 -230 -172 -262 -192 -52 -32 -71 -24 -252 110
-94 70 -209 158 -256 197 -47 39 -96 80 -109 91 -30 24 -180 155 -235 205 -80
71 -405 398 -483 485 -162 181 -375 455 -404 520 -5 11 -23 43 -39 70 -39 65
-130 251 -130 265 0 6 -6 21 -14 33 -17 26 -113 312 -126 377 -5 25 -19 88
-30 140 -26 114 -38 190 -50 290 -4 41 -13 113 -19 160 -47 382 -68 887 -52
1283 12 305 38 697 47 706 2 3 57 -1 122 -8 198 -23 499 -25 653 -6 250 30
514 101 697 186 35 16 65 29 68 29 10 0 120 55 179 90 33 19 76 44 97 54 20
11 92 59 160 107 67 49 125 88 127 89 2 0 49 -33 105 -72z"/>
<path d="M2938 5284 c-5 -4 -160 -52 -243 -74 -16 -4 -70 -20 -120 -34 -49
-14 -115 -33 -145 -42 -30 -8 -91 -26 -135 -39 -71 -21 -161 -43 -360 -90 -98
-23 -220 -45 -249 -45 -16 0 -25 -4 -21 -10 8 -13 210 -13 368 0 193 15 429
41 467 50 19 5 78 16 130 25 104 17 198 37 303 62 37 8 70 13 73 10 6 -6 -20
-301 -37 -419 -5 -37 -9 -86 -9 -109 0 -33 -20 -80 -100 -235 -93 -180 -100
-197 -100 -251 0 -32 5 -74 11 -93 6 -19 17 -62 25 -95 9 -33 19 -76 24 -95 8
-32 15 -62 55 -232 30 -130 36 -151 62 -201 31 -62 82 -142 115 -179 12 -14
66 -78 118 -141 52 -64 99 -115 104 -113 5 1 19 42 31 91 13 50 31 117 40 150
9 33 23 85 30 115 21 87 36 132 52 156 13 20 253 202 326 247 16 10 34 22 40
28 37 31 179 129 187 129 6 0 10 3 10 8 0 11 118 84 129 80 6 -1 -8 -31 -30
-66 -71 -112 -103 -216 -141 -456 -8 -52 -19 -85 -31 -97 -27 -24 -262 -169
-276 -169 -6 0 -11 -3 -11 -7 0 -5 -10 -13 -23 -19 -161 -77 -227 -147 -227
-240 0 -40 19 -84 36 -84 7 0 18 16 24 35 20 62 36 65 330 65 274 0 309 -5
290 -40 -5 -10 -16 -24 -23 -32 -7 -7 -35 -42 -62 -78 -28 -36 -54 -68 -59
-71 -4 -4 -3 -10 3 -14 17 -10 741 352 741 371 0 27 -49 80 -89 99 -33 15 -47
16 -88 6 -64 -14 -237 -41 -268 -41 -14 0 -25 5 -25 10 0 13 48 34 125 55 33
10 69 21 80 25 11 5 54 18 95 30 111 32 157 50 173 69 26 29 36 111 53 448 17
315 17 349 0 674 -18 358 -26 427 -54 452 -23 19 -78 37 -116 37 -17 0 -98 12
-181 26 -82 14 -170 29 -195 34 -25 4 -88 17 -140 30 -52 12 -111 26 -130 30
-19 4 -62 16 -95 25 -33 9 -74 21 -91 25 -28 7 -120 35 -264 81 -30 9 -113 38
-185 64 -71 26 -140 50 -153 52 -12 3 -25 9 -28 14 -6 10 -137 13 -146 3z"/>
<path d="M2990 2365 c0 -365 -4 -585 -10 -585 -5 0 -58 49 -117 108 -110 110
-196 173 -313 229 -69 33 -185 61 -198 48 -4 -4 8 -19 27 -34 81 -62 244 -234
275 -290 5 -9 12 -18 15 -21 17 -14 106 -189 144 -280 59 -143 91 -246 151
-477 22 -85 41 -105 52 -55 3 15 9 38 14 52 4 14 15 61 25 105 10 44 28 112
40 150 13 39 33 104 45 145 12 41 26 79 31 85 5 5 9 15 9 23 0 23 110 243 158
317 89 135 185 243 292 325 25 19 52 41 60 47 8 7 24 19 35 28 20 14 20 15 -5
35 -14 11 -80 60 -147 109 -173 124 -217 162 -404 352 -91 93 -168 169 -172
169 -4 0 -7 -263 -7 -585z"/>
</g>
</svg>
